<svg width="24" height="24" viewBox="0 0 24 24" fill="none" xmlns="http://www.w3.org/2000/svg">
<path fill-rule="evenodd" clip-rule="evenodd" d="M8.57253 10.8333H9.66667C10.311 10.8333 10.8333 10.311 10.8333 9.66667V7.33333C10.8333 6.04467 9.78866 5 8.5 5H6.16667C5.52233 5 5 5.52233 5 6.16667C5 12.8964 11.1036 19 17.8333 19C18.4777 19 19 18.4777 19 17.8333V15.5C19 14.2113 17.9553 13.1667 16.6667 13.1667H14.3333C13.689 13.1667 13.1667 13.689 13.1667 14.3333V15.4275C11.3695 14.4469 9.82347 12.9519 8.77542 11.1893L8.57253 10.8333Z" fill="#232124"/>
</svg>
