<svg width="24" height="24" viewBox="0 0 24 24" fill="none" xmlns="http://www.w3.org/2000/svg">
<path d="M3.57313 11.208L3.581 11.2046L3.58874 11.2009C8.95813 8.6604 12.5341 6.98765 14.3206 6.18067C16.8798 5.02471 18.4129 4.35198 19.3912 3.96645C20.3793 3.57705 20.7452 3.50485 20.9942 3.50004L20.9846 3.00097L20.9937 3.50005C21.0272 3.49944 21.105 3.50436 21.1902 3.52647C21.2774 3.54912 21.3364 3.58042 21.3676 3.60793C21.416 3.65056 21.4456 3.7205 21.4664 3.85225C21.4868 3.98149 21.5127 4.29339 21.493 4.51809C21.2179 7.65702 20.0223 15.3122 19.4119 18.8558C19.2891 19.5688 19.115 19.9894 18.9519 20.2249C18.7983 20.4469 18.6704 20.4862 18.5963 20.4936C18.2222 20.5309 17.8672 20.4039 17.4437 20.1337C17.2312 19.9981 17.0147 19.8352 16.7765 19.6515C16.7379 19.6217 16.6987 19.5914 16.6589 19.5605C16.4583 19.4053 16.2431 19.2386 16.0186 19.0788C15.2121 18.5047 14.581 18.0389 13.9532 17.5746L13.8698 17.5129C13.2696 17.0691 12.6651 16.622 11.9098 16.0814C11.4837 15.7765 11.2946 15.5472 11.2186 15.3891C11.1568 15.2606 11.1589 15.1603 11.2103 15.033C11.2734 14.8767 11.4086 14.6923 11.6314 14.4461C11.7274 14.34 11.8311 14.2314 11.9441 14.1131C11.9586 14.0979 11.9732 14.0826 11.988 14.0671C12.1161 13.9329 12.2534 13.7881 12.3896 13.6345C12.4476 13.5691 12.7386 13.2754 13.1573 12.8528C13.6461 12.3595 14.309 11.6904 14.9782 11.0041C15.5906 10.376 16.2011 9.74053 16.6653 9.23414C16.8967 8.98163 17.0965 8.75611 17.2433 8.57727C17.3162 8.48849 17.3815 8.40457 17.4324 8.33079C17.4577 8.29405 17.4839 8.25352 17.5067 8.21182C17.5254 8.17768 17.5604 8.10999 17.5786 8.02567C17.5974 7.93889 17.6039 7.81772 17.5871 7.69489C17.5709 7.57574 17.5214 7.37074 17.3515 7.20677C17.1769 7.03827 16.9699 6.99816 16.8204 6.99689C16.6861 6.99575 16.5642 7.02587 16.508 7.03974L16.5033 7.04091C16.4437 7.0556 16.3963 7.07876 16.381 7.08624L16.3809 7.08633C16.3574 7.0978 16.3348 7.11028 16.3151 7.12155C16.2754 7.14435 16.2288 7.17332 16.1778 7.20611C16.0748 7.27234 15.9355 7.36619 15.762 7.48587C15.4141 7.7259 14.9155 8.07906 14.2674 8.54423C12.9707 9.47505 11.0677 10.8602 8.55925 12.6991L8.55924 12.699L8.55596 12.7015C7.86506 13.2167 7.3083 13.4139 6.86943 13.4036C6.60647 13.3974 6.17682 13.3116 5.66374 13.1719C5.16333 13.0356 4.62433 12.8597 4.16142 12.6963C4.00416 12.6408 3.85757 12.5906 3.7211 12.544C3.32176 12.4075 3.0092 12.3006 2.77026 12.1749C2.61791 12.0948 2.54893 12.0323 2.5201 11.9939C2.50412 11.9725 2.49624 11.9573 2.50155 11.9113C2.50147 11.912 2.50141 11.9123 2.50143 11.9123C2.50173 11.9124 2.51778 11.8376 2.69243 11.6968C2.87069 11.553 3.15653 11.3879 3.57313 11.208Z" fill="#232124" stroke="#232124"/>
</svg>
