<svg width="24" height="24" viewBox="0 0 24 24" fill="none" xmlns="http://www.w3.org/2000/svg">
<path d="M21.0618 6.67017L21.0411 6.73984V6.75435C20.9762 7.00464 20.7956 7.40782 20.5235 7.91314C20.2423 8.43548 19.8899 9.01952 19.5422 9.5696C19.1952 10.1187 18.8564 10.6286 18.604 11.0016C18.478 11.1879 18.3737 11.3398 18.3011 11.4449C18.2648 11.4974 18.2364 11.5382 18.2172 11.5658L18.1953 11.597L18.1899 11.6048L18.1886 11.6067L18.1883 11.6072L18.1882 11.6072L18.1799 11.6191L18.1722 11.6314C18.1688 11.637 18.1652 11.6427 18.1616 11.6485C18.0599 11.8125 17.9122 12.0505 17.8902 12.3293C17.8644 12.6548 18.0065 12.9285 18.1953 13.1755C18.3374 13.3732 18.603 13.6359 18.8529 13.8831C18.8669 13.8969 18.8807 13.9106 18.8945 13.9242C19.1819 14.2086 19.4833 14.5082 19.7206 14.7916L19.7205 14.7917L19.7285 14.8009C20.1953 15.3314 20.5957 15.8105 20.9016 16.2287C21.2112 16.652 21.3965 16.9766 21.4708 17.2062C21.5011 17.313 21.5023 17.3789 21.4984 17.4126C21.4965 17.4288 21.4935 17.4367 21.4926 17.4388C21.4924 17.4393 21.4923 17.4396 21.4922 17.4398C21.4921 17.4399 21.4921 17.4399 21.4921 17.44C21.492 17.4402 21.4919 17.4403 21.492 17.4402L21.4919 17.4402L21.4905 17.4414C21.4892 17.4426 21.4868 17.4445 21.4829 17.447C21.475 17.4521 21.4605 17.4599 21.4368 17.4681C21.3878 17.485 21.3086 17.5 21.192 17.5H19.004C18.8703 17.5 18.7798 17.4749 18.6939 17.4295C18.597 17.3783 18.484 17.2893 18.3219 17.1251C18.19 16.9915 18.046 16.8296 17.8634 16.6245C17.8191 16.5747 17.7725 16.5223 17.7233 16.4672C17.4761 16.1905 17.1763 15.8603 16.7968 15.477L16.7969 15.477L16.7904 15.4706C15.4838 14.198 14.8009 13.9003 14.2622 13.9003C14.0323 13.9003 13.6656 13.9224 13.42 14.2308C13.3076 14.3719 13.2545 14.5332 13.2266 14.6792C13.1987 14.8249 13.1902 14.9872 13.1902 15.1579V17.1403C13.1902 17.3562 13.1562 17.3595 13.1506 17.3601C13.1503 17.3601 13.15 17.3601 13.1499 17.3602C13.0713 17.4134 12.8224 17.5 12.1274 17.5C10.0106 17.5 7.6036 16.1924 5.86557 13.6716L5.8656 13.6715L5.86236 13.667C4.52805 11.7774 3.68275 10.1243 3.17258 8.87996C2.91738 8.2575 2.74691 7.73944 2.64101 7.34718C2.53127 6.94069 2.5 6.70239 2.5 6.62526C2.5 6.57503 2.5047 6.54707 2.50816 6.53338C2.5328 6.52205 2.60061 6.5 2.75018 6.5H4.93819C5.1401 6.5 5.19249 6.54221 5.21832 6.56624C5.27021 6.61451 5.34313 6.72584 5.44428 7.02092C5.99138 8.63059 6.72626 10.141 7.425 11.2566C7.77349 11.813 8.12172 12.2852 8.44268 12.6251C8.60264 12.7945 8.76722 12.9432 8.9323 13.053C9.08796 13.1565 9.29673 13.2611 9.53363 13.2611C9.63549 13.2611 9.77747 13.2504 9.92183 13.1846C10.08 13.1125 10.199 12.9938 10.2792 12.8475C10.4142 12.6013 10.4394 12.2701 10.4394 11.9179V8.66258V8.64903L10.4386 8.63551C10.3923 7.78119 10.1372 7.28435 9.87853 6.92895C9.82264 6.85215 9.76773 6.78348 9.72318 6.72777C9.72017 6.72401 9.71721 6.7203 9.7143 6.71666C9.66507 6.65506 9.63261 6.6137 9.60719 6.57654C9.58306 6.54125 9.57464 6.52289 9.57167 6.51505C9.57166 6.51501 9.57164 6.51497 9.57163 6.51494C9.57186 6.51468 9.57211 6.51442 9.57237 6.51416C9.57441 6.51211 9.5779 6.50929 9.58422 6.50668C9.59018 6.50421 9.60331 6.5 9.62678 6.5H13.0651C13.111 6.5 13.1397 6.50402 13.1558 6.50742C13.1596 6.51743 13.1644 6.53279 13.1693 6.55507C13.1814 6.6107 13.1902 6.69324 13.1902 6.81253V11.1919C13.1902 11.7438 13.456 12.3239 14.0306 12.3239C14.5503 12.3239 14.9253 11.9823 15.4059 11.4967L15.4157 11.4869L15.4248 11.4765C16.2523 10.5422 16.9466 9.37117 17.4291 8.44967C17.672 7.98592 17.8645 7.57904 17.9966 7.2875C18.0626 7.14162 18.1137 7.02436 18.1485 6.94297C18.1659 6.90227 18.1792 6.87052 18.1883 6.84863L18.1988 6.82329L18.2011 6.81779C18.2495 6.70444 18.3033 6.63222 18.3625 6.58703C18.4154 6.54659 18.5083 6.5 18.6914 6.5H20.8794C20.9888 6.5 21.0546 6.51274 21.0898 6.52365C21.0888 6.55375 21.0821 6.60175 21.0618 6.67017ZM2.51179 6.5224C2.51181 6.52242 2.51164 6.52283 2.51124 6.52355L2.51179 6.5224ZM2.49842 6.53852C2.49721 6.53953 2.49652 6.53996 2.49648 6.53993C2.49644 6.53989 2.49705 6.53939 2.49842 6.53852Z" fill="#232124" stroke="#232124"/>
</svg>
