<svg width="24" height="24" viewBox="0 0 24 24" fill="none" xmlns="http://www.w3.org/2000/svg">
<path d="M15.6666 5.33317V5.83317H16.1666H17.8333C18.3637 5.83317 18.8724 6.04388 19.2475 6.41896C19.6226 6.79403 19.8333 7.30274 19.8333 7.83317V17.8332C19.8333 18.3636 19.6226 18.8723 19.2475 19.2474C18.8724 19.6225 18.3637 19.8332 17.8333 19.8332H6.16663C5.63619 19.8332 5.12749 19.6225 4.75241 19.2474C4.37734 18.8723 4.16663 18.3636 4.16663 17.8332V7.83317C4.16663 7.30274 4.37734 6.79403 4.75241 6.41896C5.12749 6.04388 5.63619 5.83317 6.16663 5.83317H7.83329H8.33329V5.33317V4.49984C8.33329 4.41143 8.36841 4.32665 8.43092 4.26414C8.49344 4.20162 8.57822 4.1665 8.66663 4.1665C8.75503 4.1665 8.83982 4.20162 8.90233 4.26413C8.96484 4.32665 8.99996 4.41143 8.99996 4.49984V5.33317V5.83317H9.49996H14.5H15V5.33317V4.49984C15 4.41143 15.0351 4.32665 15.0976 4.26414C15.1601 4.20162 15.2449 4.1665 15.3333 4.1665C15.4217 4.1665 15.5065 4.20162 15.569 4.26414C15.6315 4.32665 15.6666 4.41143 15.6666 4.49984V5.33317ZM5.33329 11.4998H4.83329V11.9998V17.8332C4.83329 18.1868 4.97377 18.5259 5.22382 18.776C5.47387 19.026 5.813 19.1665 6.16663 19.1665H17.8333C18.1869 19.1665 18.5261 19.026 18.7761 18.776C19.0262 18.5259 19.1666 18.1868 19.1666 17.8332V11.9998V11.4998H18.6666H5.33329ZM18.6666 10.8332H19.1666V10.3332V7.83317C19.1666 7.47955 19.0262 7.14041 18.7761 6.89036C18.5261 6.64031 18.1869 6.49984 17.8333 6.49984H16.1666H15.6666V6.99984V7.83317C15.6666 7.92158 15.6315 8.00636 15.569 8.06887C15.5065 8.13138 15.4217 8.1665 15.3333 8.1665C15.2449 8.1665 15.1601 8.13139 15.0976 8.06887C15.0351 8.00636 15 7.92158 15 7.83317V6.99984V6.49984H14.5H9.49996H8.99996V6.99984V7.83317C8.99996 7.92158 8.96484 8.00636 8.90233 8.06887C8.83982 8.13139 8.75503 8.1665 8.66663 8.1665C8.57822 8.1665 8.49344 8.13139 8.43092 8.06887C8.36841 8.00636 8.33329 7.92158 8.33329 7.83317V6.99984V6.49984H7.83329H6.16663C5.813 6.49984 5.47387 6.64031 5.22382 6.89036C4.97377 7.14041 4.83329 7.47955 4.83329 7.83317V10.3332V10.8332H5.33329H18.6666Z" fill="#232124" stroke="#232124"/>
</svg>
