<svg width="16" height="16" viewBox="0 0 16 16" fill="none" xmlns="http://www.w3.org/2000/svg">
<g clip-path="url(#clip0_1758_3758)">
<path d="M11.3344 2.04314C11.5066 1.87094 11.711 1.73435 11.936 1.64116C12.161 1.54796 12.4021 1.5 12.6456 1.5C12.8891 1.5 13.1303 1.54796 13.3553 1.64116C13.5802 1.73435 13.7847 1.87094 13.9569 2.04314C14.1291 2.21533 14.2657 2.41976 14.3588 2.64474C14.452 2.86973 14.5 3.11086 14.5 3.35439C14.5 3.59791 14.452 3.83904 14.3588 4.06403C14.2657 4.28901 14.1291 4.49344 13.9569 4.66563L5.10593 13.5166L1.5 14.5L2.48344 10.8941L11.3344 2.04314Z" stroke="#6D54FE" stroke-width="1.3" stroke-linecap="round" stroke-linejoin="round"/>
</g>
<defs>
<clipPath id="clip0_1758_3758">
<rect width="16" height="16" fill="white"/>
</clipPath>
</defs>
</svg>
