<svg width="24" height="24" viewBox="0 0 24 24" fill="none" xmlns="http://www.w3.org/2000/svg">
<path d="M4.5 7H6.16667H19.5" stroke="white" stroke-width="1.7" stroke-linecap="round" stroke-linejoin="round"/>
<path d="M8.66663 6.99984V5.33317C8.66663 4.89114 8.84222 4.46722 9.15478 4.15466C9.46734 3.8421 9.89127 3.6665 10.3333 3.6665H13.6666C14.1087 3.6665 14.5326 3.8421 14.8451 4.15466C15.1577 4.46722 15.3333 4.89114 15.3333 5.33317V6.99984M17.8333 6.99984V18.6665C17.8333 19.1085 17.6577 19.5325 17.3451 19.845C17.0326 20.1576 16.6087 20.3332 16.1666 20.3332H7.83329C7.39127 20.3332 6.96734 20.1576 6.65478 19.845C6.34222 19.5325 6.16663 19.1085 6.16663 18.6665V6.99984H17.8333Z" stroke="white" stroke-width="1.7" stroke-linecap="round" stroke-linejoin="round"/>
<path d="M13.6666 11.1665V16.1665" stroke="white" stroke-width="1.7" stroke-linecap="round" stroke-linejoin="round"/>
<path d="M10.3334 11.1665V16.1665" stroke="white" stroke-width="1.7" stroke-linecap="round" stroke-linejoin="round"/>
</svg>
