<svg width="24" height="24" viewBox="0 0 24 24" fill="none" xmlns="http://www.w3.org/2000/svg">
<g clip-path="url(#clip0_21_989)">
<path d="M10.2502 5.53352C10.8238 5.39925 11.411 5.33213 12.0002 5.33352C17.8335 5.33352 21.1668 12.0002 21.1668 12.0002C20.661 12.9465 20.0577 13.8375 19.3668 14.6585M13.7668 13.7668C13.538 14.0125 13.262 14.2095 12.9553 14.3461C12.6486 14.4828 12.3176 14.5562 11.9819 14.5622C11.6462 14.5681 11.3128 14.5063 11.0015 14.3806C10.6902 14.2549 10.4074 14.0677 10.17 13.8303C9.93264 13.5929 9.74549 13.3101 9.61975 12.9988C9.49402 12.6875 9.43227 12.3541 9.43819 12.0184C9.44411 11.6828 9.51759 11.3517 9.65423 11.0451C9.79087 10.7384 9.98787 10.4624 10.2335 10.2335M16.9502 16.9502C15.5257 18.036 13.7911 18.6376 12.0002 18.6668C6.16683 18.6668 2.8335 12.0002 2.8335 12.0002C3.87007 10.0684 5.30778 8.38069 7.05016 7.05018L16.9502 16.9502Z" stroke="#787486" stroke-width="1.7" stroke-linecap="round" stroke-linejoin="round"/>
<path d="M2.8335 2.8335L21.1668 21.1668" stroke="#787486" stroke-width="1.7" stroke-linecap="round" stroke-linejoin="round"/>
</g>
<defs>
<clipPath id="clip0_21_989">
<rect width="20" height="20" fill="white" transform="translate(2 2)"/>
</clipPath>
</defs>
</svg>
