<svg width="104" height="32" viewBox="0 0 104 32" fill="none" xmlns="http://www.w3.org/2000/svg">
<g clip-path="url(#clip0_1922_7147)">
<path d="M6.45614 24.7139C4.3721 24.7139 2.79498 24.329 1.7248 23.5592C0.654611 22.7706 0.0256424 21.738 -0.162109 20.4613L3.41456 19.5601C3.52721 20.1046 3.837 20.5458 4.34393 20.8837C4.85086 21.2029 5.54555 21.3625 6.42798 21.3625C7.83612 21.3625 8.54019 21.0339 8.54019 20.3768C8.54019 20.0388 8.33366 19.7854 7.92061 19.6164C7.52633 19.4286 6.87858 19.2503 5.97737 19.0813C4.28761 18.7809 2.97335 18.3021 2.03459 17.645C1.1146 16.9879 0.654611 15.9834 0.654611 14.6316C0.654611 13.7116 0.917463 12.8949 1.44317 12.1814C1.96887 11.468 2.69172 10.9047 3.6117 10.4917C4.53169 10.0786 5.59248 9.87208 6.7941 9.87208C8.35244 9.87208 9.63853 10.2382 10.6524 10.9704C11.685 11.7027 12.2952 12.6039 12.483 13.6741L8.96263 14.6316C8.8312 14.2185 8.56835 13.8806 8.17407 13.6177C7.79857 13.3549 7.28225 13.2235 6.62512 13.2235C6.00554 13.2235 5.54555 13.3267 5.24514 13.5332C4.96351 13.7398 4.8227 13.9838 4.8227 14.2655C4.8227 14.6034 5.01984 14.8757 5.41412 15.0822C5.8084 15.2699 6.50308 15.4671 7.49816 15.6736C8.51202 15.8614 9.40384 16.1242 10.1736 16.4622C10.9622 16.7813 11.5724 17.232 12.0042 17.814C12.4548 18.3772 12.6801 19.147 12.6801 20.1233C12.6801 21.0433 12.4079 21.8506 11.8634 22.5453C11.3377 23.24 10.6055 23.7751 9.6667 24.1506C8.72794 24.5261 7.65775 24.7139 6.45614 24.7139Z" fill="#232124"/>
<path d="M19.9031 24.7139C18.2508 24.7139 17.0023 24.1506 16.1574 23.0241C15.3125 21.8976 14.8995 20.3299 14.9183 18.3209L14.9746 10.0974H19.2835L19.2272 17.983C19.2272 18.8278 19.3774 19.4944 19.6778 19.9825C19.9782 20.4707 20.4475 20.7147 21.0859 20.7147C21.6304 20.7147 22.1279 20.5458 22.5785 20.2078C23.0291 19.8699 23.4234 19.3066 23.7614 18.5181C24.0993 17.7295 24.3622 16.6499 24.5499 15.2793C24.7564 13.9087 24.8691 12.1814 24.8879 10.0974H29.056V24.4322H24.7471L24.9442 21.6723C24.3809 22.6486 23.6675 23.3996 22.8038 23.9253C21.9402 24.451 20.9732 24.7139 19.9031 24.7139Z" fill="#232124"/>
<path d="M57.7934 10.0974L58.1876 24.4322H54.1314V10.0974H57.7934Z" fill="#232124"/>
<path d="M67.6562 24.7139C66.1729 24.7139 64.8868 24.4322 63.7979 23.869C62.7089 23.2869 61.8639 22.4608 61.2631 21.3907C60.6623 20.3205 60.3619 19.0438 60.3619 17.5605C60.3619 16.0397 60.6811 14.7067 61.3194 13.5614C61.9766 12.3973 62.8779 11.4961 64.0232 10.8578C65.1684 10.2006 66.5015 9.87208 68.0223 9.87208C69.2614 9.87208 70.3598 10.1162 71.3173 10.6043C72.2749 11.0925 73.0446 11.8529 73.6267 12.8855L70.5851 15.1948C70.2847 14.6504 69.928 14.2561 69.5149 14.012C69.1206 13.7679 68.6231 13.6459 68.0223 13.6459C67.1023 13.6459 66.3419 14.0026 65.7411 14.7161C65.1403 15.4108 64.8399 16.3307 64.8399 17.476C64.8399 18.5838 65.1027 19.438 65.6284 20.0388C66.1729 20.6396 66.9521 20.9401 67.9659 20.9401C68.5104 20.9401 69.008 20.818 69.4586 20.5739C69.928 20.3111 70.3222 19.9074 70.6414 19.3629L73.5985 21.7286C72.9602 22.8176 72.1153 23.5874 71.0639 24.038C70.0312 24.4886 68.8953 24.7139 67.6562 24.7139Z" fill="#232124"/>
<path d="M89.8302 10.1537V24.4322H85.4932L85.634 22.2919C84.6014 23.9065 83.0712 24.7139 81.0434 24.7139C79.7667 24.7139 78.6778 24.4228 77.7766 23.8408C76.8754 23.2588 76.1901 22.4515 75.7207 21.4188C75.2513 20.3862 75.0166 19.2033 75.0166 17.8703C75.0166 16.2744 75.3452 14.8757 76.0023 13.6741C76.6595 12.4724 77.5419 11.5431 78.6496 10.8859C79.7573 10.21 80.9965 9.87208 82.3671 9.87208C83.2683 9.87208 84.0663 10.0598 84.7609 10.4353C85.4556 10.7921 85.9907 11.2708 86.3662 11.8716L86.7323 10.1537H89.8302ZM82.7895 13.6177C81.7569 13.6177 80.9402 14.0026 80.3394 14.7724C79.7574 15.5422 79.4663 16.5279 79.4663 17.7295C79.4663 18.7621 79.6916 19.5601 80.1422 20.1233C80.6116 20.6866 81.2406 20.9682 82.0292 20.9682C82.9867 20.9682 83.8034 20.5739 84.4793 19.7854C85.174 18.9968 85.5213 17.9642 85.5213 16.6875C85.5213 15.7299 85.2773 14.9789 84.7891 14.4345C84.301 13.89 83.6344 13.6177 82.7895 13.6177Z" fill="#232124"/>
<path d="M98.2091 24.7139C96.4442 24.7139 95.0455 24.2257 94.0128 23.2494C92.9802 22.2543 92.4733 20.9494 92.492 19.3348L92.6047 13.6741L92.661 10.0974L92.6892 7.16846H96.9699L96.9417 10.0974H101.42V13.6741H96.8854L96.8009 18.856C96.8009 19.5319 96.9793 20.0576 97.336 20.4331C97.6927 20.8086 98.2279 20.9964 98.9413 20.9964C99.3544 20.9964 99.7486 20.9494 100.124 20.8556C100.518 20.7429 100.922 20.5364 101.335 20.236L102.574 23.531C101.617 24.3196 100.162 24.7139 98.2091 24.7139Z" fill="#232124"/>
<path d="M54.1572 7.55494C54.6122 8.05345 55.2248 8.3027 55.9949 8.3027C56.7649 8.3027 57.3775 8.05345 57.8325 7.55494C58.2876 7.05643 58.5151 6.4656 58.5151 5.78245C58.5151 5.09931 58.2876 4.50848 57.8325 4.00997C57.3775 3.51146 56.7649 3.26221 55.9949 3.26221C55.2073 3.26221 54.586 3.51146 54.1309 4.00997C53.6934 4.50848 53.4746 5.09931 53.4746 5.78245C53.4746 6.4656 53.7021 7.05643 54.1572 7.55494Z" fill="#232124"/>
<path d="M41.3417 14.2658C40.9662 14.1156 40.2335 13.9637 39.6058 13.8474C37.566 13.4693 35.7267 14.7294 35.5734 16.3676C35.4201 18.0058 35.8218 21.9354 35.8218 24.4325H31.541V16.3676C31.541 13.8474 32.8248 11.9572 34.3369 11.0751C35.7619 10.2439 37.9898 9.70985 40.3841 9.87237C41.3936 9.94089 42.1021 10.1258 42.1021 10.1258L41.3417 14.2658Z" fill="#232124"/>
<path d="M43.9834 24.4321V13.674L43.9834 10.0973L43.9834 9.64668C43.9834 8.35119 44.265 7.23407 44.8282 6.29531C45.3915 5.33778 46.1519 4.60555 47.1094 4.09862C48.0857 3.57291 49.1841 3.31006 50.4045 3.31006C50.4045 3.31006 52.0761 3.43601 52.4262 3.6401L51.3902 7.25285C51.1085 7.04632 50.7518 6.94306 50.32 6.94306C49.6629 6.94306 49.1465 7.14958 48.771 7.56263C48.4143 7.95691 48.0158 8.52956 48.0158 9.28056V10.0973H51.3902V13.674H48.0158L48.2923 24.4321H43.9834Z" fill="#232124"/>
</g>
<defs>
<clipPath id="clip0_1922_7147">
<rect width="104" height="32" fill="white"/>
</clipPath>
</defs>
</svg>
