<svg width="21" height="20" viewBox="0 0 21 20" fill="none" xmlns="http://www.w3.org/2000/svg">
<path fill-rule="evenodd" clip-rule="evenodd" d="M11.3336 2.99984C11.3336 2.5396 10.9605 2.1665 10.5003 2.1665C10.04 2.1665 9.66695 2.5396 9.66695 2.99984V9.1665H3.50033C3.04009 9.1665 2.66699 9.5396 2.66699 9.99984C2.66699 10.4601 3.04009 10.8332 3.50033 10.8332H9.66695V16.9998C9.66695 17.4601 10.04 17.8331 10.5003 17.8331C10.9605 17.8331 11.3336 17.4601 11.3336 16.9998V10.8332H17.5003C17.9606 10.8332 18.3337 10.4601 18.3337 9.99984C18.3337 9.5396 17.9606 9.1665 17.5003 9.1665H11.3336V2.99984Z" fill="#232124"/>
</svg>
