<svg width="16" height="16" viewBox="0 0 16 16" fill="none" xmlns="http://www.w3.org/2000/svg">
<path fill-rule="evenodd" clip-rule="evenodd" d="M8.83362 0.999837C8.83362 0.5396 8.46052 0.166504 8.00029 0.166504C7.54005 0.166504 7.16695 0.5396 7.16695 0.999837V7.1665H1.00033C0.540088 7.1665 0.166992 7.5396 0.166992 7.99984C0.166992 8.46007 0.540088 8.83317 1.00033 8.83317H7.16695V14.9998C7.16695 15.4601 7.54005 15.8331 8.00029 15.8331C8.46052 15.8331 8.83362 15.4601 8.83362 14.9998V8.83317H15.0003C15.4606 8.83317 15.8337 8.46007 15.8337 7.99984C15.8337 7.5396 15.4606 7.1665 15.0003 7.1665H8.83362V0.999837Z" fill="white"/>
</svg>
