<svg width="16" height="16" viewBox="0 0 16 16" fill="none" xmlns="http://www.w3.org/2000/svg">
<path d="M14 7.3335C13.8232 7.3335 13.6536 7.40373 13.5286 7.52876C13.4036 7.65378 13.3333 7.82335 13.3333 8.00016C13.3413 9.24885 12.9135 10.4612 12.1238 11.4285C11.334 12.3957 10.2317 13.0573 9.00662 13.2992C7.78158 13.5412 6.5105 13.3484 5.41232 12.754C4.31413 12.1597 3.45758 11.2009 2.9902 10.043C2.52281 8.88506 2.47384 7.60037 2.85173 6.41021C3.22961 5.22005 4.0107 4.19892 5.06045 3.52268C6.1102 2.84645 7.36291 2.55744 8.60282 2.70544C9.84273 2.85344 10.9922 3.42918 11.8533 4.3335H10.2533C10.0765 4.3335 9.90693 4.40373 9.78191 4.52876C9.65689 4.65378 9.58665 4.82335 9.58665 5.00016C9.58665 5.17697 9.65689 5.34654 9.78191 5.47157C9.90693 5.59659 10.0765 5.66683 10.2533 5.66683H13.2733C13.4501 5.66683 13.6197 5.59659 13.7447 5.47157C13.8697 5.34654 13.94 5.17697 13.94 5.00016V2.00016C13.94 1.82335 13.8697 1.65378 13.7447 1.52876C13.6197 1.40373 13.4501 1.3335 13.2733 1.3335C13.0965 1.3335 12.9269 1.40373 12.8019 1.52876C12.6769 1.65378 12.6066 1.82335 12.6066 2.00016V3.18016C11.4964 2.11887 10.0538 1.47346 8.52266 1.35305C6.9915 1.23263 5.46573 1.64459 4.20326 2.51929C2.94079 3.39399 2.01905 4.67777 1.59387 6.15362C1.16868 7.62948 1.26612 9.20688 1.86972 10.6192C2.47332 12.0315 3.54605 13.1921 4.90658 13.9047C6.26711 14.6174 7.83198 14.8384 9.33667 14.5305C10.8414 14.2225 12.1936 13.4045 13.1647 12.2146C14.1359 11.0247 14.6664 9.53605 14.6666 8.00016C14.6666 7.82335 14.5964 7.65378 14.4714 7.52876C14.3464 7.40373 14.1768 7.3335 14 7.3335Z" fill="#232124"/>
</svg>
