<svg width="54" height="64" viewBox="0 0 54 64" fill="none" xmlns="http://www.w3.org/2000/svg">
<path d="M27.8289 64C19.0658 64 12.4342 62.3403 7.93421 59.0209C3.43421 55.6205 0.789474 51.1676 0 45.6622L15.0395 41.7761C15.5132 44.124 16.8158 46.0266 18.9474 47.4839C21.0789 48.8602 24 49.5484 27.7105 49.5484C33.6316 49.5484 36.5921 48.1316 36.5921 45.2979C36.5921 43.8406 35.7237 42.7476 33.9868 42.019C32.3289 41.2093 29.6053 40.4402 25.8158 39.7116C18.7105 38.4162 13.1842 36.3517 9.23684 33.518C5.36842 30.6844 3.43421 26.3529 3.43421 20.5237C3.43421 16.5566 4.53947 13.0348 6.75 9.95825C8.96053 6.88172 12 4.45287 15.8684 2.67172C19.7368 0.890567 24.1974 0 29.25 0C35.8026 0 41.2105 1.57875 45.4737 4.73624C49.8158 7.89374 52.3816 11.7799 53.1711 16.3947L38.3684 20.5237C37.8158 18.7426 36.7105 17.2853 35.0526 16.1518C33.4737 15.0183 31.3026 14.4516 28.5395 14.4516C25.9342 14.4516 24 14.8969 22.7368 15.7875C21.5526 16.678 20.9605 17.7305 20.9605 18.945C20.9605 20.4023 21.7895 21.5762 23.4474 22.4668C25.1053 23.2764 28.0263 24.1265 32.2105 25.0171C36.4737 25.8267 40.2237 26.9601 43.4605 28.4175C46.7763 29.7938 49.3421 31.7369 51.1579 34.2467C53.0526 36.6755 54 39.9949 54 44.2049C54 48.172 52.8553 51.6534 50.5658 54.649C48.3553 57.6445 45.2763 59.9519 41.3289 61.5712C37.3816 63.1904 32.8816 64 27.8289 64Z" fill="white"/>
</svg>
