<svg width="25" height="24" viewBox="0 0 25 24" fill="none" xmlns="http://www.w3.org/2000/svg">
<path d="M4.07313 11.208L4.081 11.2046L4.08874 11.2009C9.45813 8.6604 13.0341 6.98765 14.8206 6.18067C17.3798 5.02471 18.9129 4.35198 19.8912 3.96645C20.8793 3.57705 21.2452 3.50485 21.4942 3.50004L21.4846 3.00013L21.4937 3.50005C21.5272 3.49944 21.605 3.50436 21.6902 3.52647C21.7774 3.54912 21.8364 3.58042 21.8676 3.60793C21.916 3.65056 21.9456 3.7205 21.9664 3.85225C21.9868 3.98149 22.0127 4.29339 21.993 4.51809C21.7179 7.65702 20.5223 15.3122 19.9119 18.8558C19.7891 19.5688 19.615 19.9894 19.4519 20.2249C19.2983 20.4469 19.1704 20.4862 19.0963 20.4936C18.7222 20.5309 18.3672 20.4039 17.9437 20.1337C17.7312 19.9981 17.5147 19.8352 17.2765 19.6515C17.2379 19.6217 17.1987 19.5914 17.1589 19.5606C16.9584 19.4053 16.7432 19.2386 16.5186 19.0788C15.7121 18.5047 15.081 18.0389 14.4532 17.5746L14.3698 17.5129C13.7696 17.0691 13.1651 16.622 12.4098 16.0814C11.9837 15.7765 11.7946 15.5472 11.7186 15.3891C11.6568 15.2606 11.6589 15.1603 11.7103 15.033C11.7734 14.8767 11.9086 14.6923 12.1314 14.4461C12.2274 14.34 12.3311 14.2314 12.4441 14.1131C12.4586 14.0979 12.4732 14.0826 12.488 14.0671C12.6161 13.9329 12.7534 13.7881 12.8896 13.6345C12.9476 13.5691 13.2386 13.2754 13.6572 12.8529C14.1461 12.3595 14.809 11.6904 15.4782 11.0041C16.0906 10.376 16.7011 9.74053 17.1653 9.23414C17.3967 8.98163 17.5965 8.75611 17.7433 8.57727C17.8162 8.48849 17.8815 8.40457 17.9324 8.33079C17.9577 8.29405 17.9839 8.25352 18.0067 8.21182C18.0254 8.17768 18.0604 8.10999 18.0786 8.02567L17.5899 7.92011L18.0786 8.02567C18.0974 7.93889 18.1039 7.81772 18.0871 7.69489C18.0709 7.57574 18.0214 7.37074 17.8515 7.20677C17.6769 7.03827 17.4699 6.99816 17.3204 6.99689C17.1861 6.99575 17.0642 7.02587 17.008 7.03973L17.0033 7.04091C16.9437 7.0556 16.8963 7.07876 16.8811 7.08624L16.8809 7.08633C16.8574 7.0978 16.8348 7.11028 16.8151 7.12155C16.7754 7.14435 16.7288 7.17332 16.6778 7.20611C16.5748 7.27234 16.4355 7.36619 16.262 7.48587C15.9141 7.7259 15.4155 8.07906 14.7674 8.54423C13.4707 9.47505 11.5677 10.8602 9.05925 12.6991L9.05924 12.699L9.05596 12.7015C8.36506 13.2167 7.8083 13.4139 7.36943 13.4036C7.10647 13.3974 6.67682 13.3116 6.16374 13.1719C5.66333 13.0356 5.12433 12.8597 4.66142 12.6963C4.50416 12.6408 4.35757 12.5906 4.22111 12.544C3.82177 12.4075 3.5092 12.3006 3.27026 12.1749C3.11791 12.0948 3.04893 12.0323 3.0201 11.9939C3.00412 11.9725 2.99624 11.9573 3.00155 11.9113C3.00147 11.912 3.00141 11.9123 3.00143 11.9123C3.00173 11.9124 3.01778 11.8376 3.19243 11.6968C3.37069 11.553 3.65653 11.3879 4.07313 11.208Z" fill="white" stroke="white"/>
</svg>
