<svg width="21" height="20" viewBox="0 0 21 20" fill="none" xmlns="http://www.w3.org/2000/svg">
<g clip-path="url(#clip0_154_2169)">
<path d="M10.5 12.5C11.8807 12.5 13 11.3807 13 10C13 8.61929 11.8807 7.5 10.5 7.5C9.11929 7.5 8 8.61929 8 10C8 11.3807 9.11929 12.5 10.5 12.5Z" stroke="white" stroke-width="1.7" stroke-linecap="round" stroke-linejoin="round"/>
<path d="M16.6666 12.4999C16.5557 12.7513 16.5226 13.0301 16.5716 13.3004C16.6206 13.5707 16.7495 13.8202 16.9416 14.0166L16.9916 14.0666C17.1465 14.2214 17.2695 14.4052 17.3534 14.6075C17.4372 14.8098 17.4804 15.0267 17.4804 15.2458C17.4804 15.4648 17.4372 15.6817 17.3534 15.884C17.2695 16.0863 17.1465 16.2701 16.9916 16.4249C16.8368 16.5799 16.653 16.7028 16.4507 16.7867C16.2483 16.8706 16.0314 16.9137 15.8124 16.9137C15.5934 16.9137 15.3765 16.8706 15.1742 16.7867C14.9719 16.7028 14.788 16.5799 14.6333 16.4249L14.5833 16.3749C14.3869 16.1828 14.1374 16.0539 13.8671 16.0049C13.5967 15.9559 13.3179 15.989 13.0666 16.0999C12.8201 16.2056 12.6099 16.381 12.4618 16.6045C12.3138 16.8281 12.2343 17.0901 12.2333 17.3583V17.4999C12.2333 17.9419 12.0577 18.3659 11.7451 18.6784C11.4325 18.991 11.0086 19.1666 10.5666 19.1666C10.1246 19.1666 9.70064 18.991 9.38807 18.6784C9.07551 18.3659 8.89992 17.9419 8.89992 17.4999V17.4249C8.89347 17.1491 8.80418 16.8816 8.64368 16.6572C8.48317 16.4328 8.25886 16.2618 7.99992 16.1666C7.74857 16.0557 7.46976 16.0226 7.19943 16.0716C6.9291 16.1206 6.67965 16.2495 6.48325 16.4416L6.43325 16.4916C6.27846 16.6465 6.09465 16.7695 5.89232 16.8534C5.68999 16.9372 5.47311 16.9804 5.25409 16.9804C5.03506 16.9804 4.81818 16.9372 4.61585 16.8534C4.41352 16.7695 4.22971 16.6465 4.07492 16.4916C3.91996 16.3368 3.79703 16.153 3.71315 15.9507C3.62928 15.7483 3.58611 15.5314 3.58611 15.3124C3.58611 15.0934 3.62928 14.8765 3.71315 14.6742C3.79703 14.4719 3.91996 14.288 4.07492 14.1333L4.12492 14.0833C4.31703 13.8869 4.44591 13.6374 4.49492 13.3671C4.54394 13.0967 4.51085 12.8179 4.39992 12.5666C4.29428 12.3201 4.11888 12.1099 3.89531 11.9618C3.67173 11.8138 3.40974 11.7343 3.14159 11.7333H2.99992C2.55789 11.7333 2.13397 11.5577 1.82141 11.2451C1.50885 10.9325 1.33325 10.5086 1.33325 10.0666C1.33325 9.62456 1.50885 9.20064 1.82141 8.88807C2.13397 8.57551 2.55789 8.39992 2.99992 8.39992H3.07492C3.35075 8.39347 3.61826 8.30418 3.84267 8.14368C4.06708 7.98317 4.23802 7.75886 4.33325 7.49992C4.44418 7.24857 4.47727 6.96976 4.42826 6.69943C4.37924 6.4291 4.25037 6.17965 4.05825 5.98325L4.00825 5.93325C3.85329 5.77846 3.73036 5.59465 3.64649 5.39232C3.56261 5.18999 3.51944 4.97311 3.51944 4.75409C3.51944 4.53506 3.56261 4.31818 3.64649 4.11585C3.73036 3.91352 3.85329 3.72971 4.00825 3.57492C4.16304 3.41996 4.34685 3.29703 4.54918 3.21315C4.75152 3.12928 4.96839 3.08611 5.18742 3.08611C5.40644 3.08611 5.62332 3.12928 5.82565 3.21315C6.02798 3.29703 6.2118 3.41996 6.36659 3.57492L6.41659 3.62492C6.61298 3.81703 6.86243 3.94591 7.13276 3.99492C7.40309 4.04394 7.68191 4.01085 7.93325 3.89992H7.99992C8.24639 3.79428 8.4566 3.61888 8.60466 3.39531C8.75273 3.17173 8.83218 2.90974 8.83325 2.64159V2.49992C8.83325 2.05789 9.00885 1.63397 9.32141 1.32141C9.63397 1.00885 10.0579 0.833252 10.4999 0.833252C10.9419 0.833252 11.3659 1.00885 11.6784 1.32141C11.991 1.63397 12.1666 2.05789 12.1666 2.49992V2.57492C12.1677 2.84307 12.2471 3.10506 12.3952 3.32864C12.5432 3.55222 12.7534 3.72762 12.9999 3.83325C13.2513 3.94418 13.5301 3.97727 13.8004 3.92826C14.0707 3.87924 14.3202 3.75037 14.5166 3.55825L14.5666 3.50825C14.7214 3.35329 14.9052 3.23036 15.1075 3.14649C15.3098 3.06261 15.5267 3.01944 15.7458 3.01944C15.9648 3.01944 16.1817 3.06261 16.384 3.14649C16.5863 3.23036 16.7701 3.35329 16.9249 3.50825C17.0799 3.66304 17.2028 3.84685 17.2867 4.04918C17.3706 4.25152 17.4137 4.46839 17.4137 4.68742C17.4137 4.90644 17.3706 5.12332 17.2867 5.32565C17.2028 5.52798 17.0799 5.7118 16.9249 5.86659L16.8749 5.91659C16.6828 6.11298 16.5539 6.36243 16.5049 6.63276C16.4559 6.90309 16.489 7.18191 16.5999 7.43325V7.49992C16.7056 7.74639 16.881 7.9566 17.1045 8.10466C17.3281 8.25273 17.5901 8.33218 17.8583 8.33325H17.9999C18.4419 8.33325 18.8659 8.50885 19.1784 8.82141C19.491 9.13397 19.6666 9.55789 19.6666 9.99992C19.6666 10.4419 19.491 10.8659 19.1784 11.1784C18.8659 11.491 18.4419 11.6666 17.9999 11.6666H17.9249C17.6568 11.6677 17.3948 11.7471 17.1712 11.8952C16.9476 12.0432 16.7722 12.2534 16.6666 12.4999V12.4999Z" stroke="white" stroke-width="1.7" stroke-linecap="round" stroke-linejoin="round"/>
</g>
<defs>
<clipPath id="clip0_154_2169">
<rect width="20" height="20" fill="white" transform="translate(0.5)"/>
</clipPath>
</defs>
</svg>
