<svg width="14" height="14" viewBox="0 0 14 14" fill="none" xmlns="http://www.w3.org/2000/svg">
<path d="M12.9999 6.33325C12.8231 6.33325 12.6535 6.40349 12.5285 6.52851C12.4035 6.65354 12.3333 6.82311 12.3333 6.99992C12.3412 8.24861 11.9134 9.46097 11.1237 10.4282C10.3339 11.3955 9.23161 12.057 8.00656 12.299C6.78151 12.5409 5.51044 12.3481 4.41226 11.7538C3.31407 11.1594 2.45752 10.2007 1.99014 9.04275C1.52275 7.88481 1.47378 6.60013 1.85167 5.40997C2.22955 4.21981 3.01063 3.19868 4.06039 2.52244C5.11014 1.8462 6.36285 1.55719 7.60276 1.70519C8.84267 1.85319 9.99216 2.42893 10.8533 3.33325H9.25325C9.07644 3.33325 8.90687 3.40349 8.78185 3.52851C8.65683 3.65354 8.58659 3.82311 8.58659 3.99992C8.58659 4.17673 8.65683 4.3463 8.78185 4.47132C8.90687 4.59635 9.07644 4.66659 9.25325 4.66659H12.2733C12.4501 4.66659 12.6196 4.59635 12.7447 4.47132C12.8697 4.3463 12.9399 4.17673 12.9399 3.99992V0.999919C12.9399 0.823108 12.8697 0.653538 12.7447 0.528514C12.6196 0.40349 12.4501 0.333252 12.2733 0.333252C12.0964 0.333252 11.9269 0.40349 11.8018 0.528514C11.6768 0.653538 11.6066 0.823108 11.6066 0.999919V2.17992C10.4964 1.11862 9.05375 0.47322 7.5226 0.352804C5.99144 0.232389 4.46567 0.644348 3.2032 1.51905C1.94073 2.39374 1.01899 3.67752 0.593806 5.15338C0.168619 6.62923 0.266061 8.20663 0.869659 9.61894C1.47326 11.0312 2.54599 12.1918 3.90652 12.9045C5.26705 13.6171 6.83192 13.8382 8.33661 13.5302C9.84131 13.2223 11.1935 12.4042 12.1647 11.2144C13.1358 10.0245 13.6664 8.5358 13.6666 6.99992C13.6666 6.82311 13.5963 6.65354 13.4713 6.52851C13.3463 6.40349 13.1767 6.33325 12.9999 6.33325Z" fill="white"/>
</svg>
