<svg width="152" height="152" viewBox="0 0 152 152" fill="none" xmlns="http://www.w3.org/2000/svg">
<circle cx="76" cy="76" r="76" fill="#6D54FE"/>
<path d="M75.293 119.674C68.5993 119.674 62.1072 118.787 55.8167 117.013C49.6069 115.158 44.6068 112.779 40.8164 109.875L47.4698 95.1169C51.0989 97.7782 55.4135 99.9154 60.4136 101.528C65.4137 103.141 70.4138 103.948 75.4139 103.948C80.9786 103.948 85.0916 103.141 87.7529 101.528C90.4143 99.8347 91.7449 97.6169 91.7449 94.875C91.7449 92.8588 90.9385 91.2055 89.3255 89.9152C87.7932 88.5442 85.7771 87.4554 83.277 86.649C80.8576 85.8425 77.5511 84.9554 73.3574 83.9876C66.9057 82.4553 61.6233 80.923 57.5103 79.3907C53.3973 77.8584 49.8489 75.3987 46.8649 72.0115C43.9616 68.6244 42.51 64.1081 42.51 58.4629C42.51 53.5434 43.8407 49.1078 46.502 45.1561C49.1634 41.1238 53.1554 37.9382 58.4781 35.5994C63.8814 33.2607 70.4542 32.0913 78.1963 32.0913C83.5996 32.0913 88.882 32.7365 94.0434 34.0268C99.2048 35.3172 103.721 37.1721 107.592 39.5915L101.544 54.4708C93.7208 50.0353 85.898 47.8175 78.0753 47.8175C72.5913 47.8175 68.5186 48.7046 65.8573 50.4788C63.2766 52.253 61.9862 54.5918 61.9862 57.4951C61.9862 60.3984 63.4782 62.5758 66.4621 64.0275C69.5267 65.3985 74.1639 66.7695 80.3737 68.1405C86.8255 69.6728 92.1079 71.2051 96.2209 72.7374C100.334 74.2697 103.842 76.6891 106.745 79.9956C109.729 83.3021 111.221 87.778 111.221 93.4233C111.221 98.2621 109.85 102.698 107.108 106.73C104.447 110.682 100.414 113.827 95.0111 116.166C89.6078 118.505 83.0351 119.674 75.293 119.674Z" fill="white"/>
</svg>
